<svg width="35" height="32" viewBox="0 0 35 32" fill="none" xmlns="http://www.w3.org/2000/svg">
<path d="M17.4389 32L14.9103 29.6981C5.92952 21.5544 0.000454126 16.1833 0.000454126 9.5916C-0.0118956 8.32864 0.227753 7.07589 0.70538 5.90667C1.18301 4.73744 1.88902 3.6752 2.78211 2.78211C3.6752 1.88902 4.73744 1.18301 5.90666 0.70538C7.07589 0.227753 8.32864 -0.0118956 9.5916 0.000454126C11.0841 0.0118372 12.5568 0.343044 13.9105 0.97175C15.2642 1.60046 16.4673 2.51205 17.4389 3.64509C18.4105 2.51205 19.6136 1.60046 20.9673 0.97175C22.321 0.343044 23.7937 0.0118372 25.2862 0.000454126C26.5492 -0.0118956 27.8019 0.227753 28.9711 0.70538C30.1404 1.18301 31.2026 1.88902 32.0957 2.78211C32.9888 3.6752 33.6948 4.73744 34.1724 5.90667C34.65 7.07589 34.8897 8.32864 34.8773 9.5916C34.8773 16.1833 28.9483 21.5544 19.9675 29.7156L17.4389 32Z" fill="#FB3958"/>
</svg>
